<?xml version="1.0" encoding="iso-8859-1"?>
<!-- Generator: Adobe Illustrator 19.0.0, SVG Export Plug-In . SVG Version: 6.00 Build 0)  -->
<svg version="1.1" id="Capa_1" xmlns="http://www.w3.org/2000/svg" xmlns:xlink="http://www.w3.org/1999/xlink" x="0px" y="0px"
	 viewBox="0 0 511.969 511.969" style="enable-background:new 0 0 511.969 511.969;" xml:space="preserve">
<g>
	<path style="fill:#FFF294;" d="M403.27,206.581l-84.109-84.109c-2.36,4.328-3.505,9.139-3.436,13.939l84.109,84.109
		C399.765,215.72,400.91,210.909,403.27,206.581z"/>
	<path style="fill:#FFF294;" d="M428.522,191.833l-84.109-84.109c-4.8-0.069-9.611,1.076-13.939,3.436l84.109,84.109
		C418.911,192.909,423.722,191.763,428.522,191.833z"/>
	<path style="fill:#FFFFFF;" d="M399.835,220.52l32.427,32.427c-0.334-9.41,1.81-18.329,7.631-24.15
		c4.879-4.879,11.505-6.901,18.656-6.938l-30.026-30.026c-4.8-0.069-9.611,1.076-13.939,3.436l11.075,11.075
		c3.125,3.125,3.125,8.188,0,11.313c-1.563,1.563-3.609,2.344-5.656,2.344s-4.094-0.781-5.656-2.344l-11.075-11.075
		C400.91,210.909,399.765,215.72,399.835,220.52z"/>
	<path style="fill:#FFF294;" d="M220.522,399.833l-84.109-84.109c-4.8-0.069-9.611,1.076-13.939,3.436l84.109,84.109
		C210.911,400.909,215.722,399.763,220.522,399.833z"/>
	<path style="fill:#FFF294;" d="M195.27,414.581l-84.109-84.109c-2.36,4.328-3.505,9.139-3.436,13.939l84.109,84.109
		C191.765,423.72,192.91,418.909,195.27,414.581z"/>
	<path style="fill:#FFFFFF;" d="M206.583,403.268l11.075,11.075c3.125,3.125,3.125,8.188,0,11.312
		c-1.563,1.563-3.609,2.344-5.656,2.344s-4.094-0.781-5.656-2.344l-11.075-11.075c-2.36,4.328-3.505,9.139-3.436,13.939
		l32.427,32.427c-0.333-9.409,1.81-18.328,7.631-24.149c4.88-4.88,11.506-6.902,18.657-6.938l-30.027-30.027
		C215.722,399.763,210.911,400.909,206.583,403.268z"/>
	<path style="fill:#FFF294;" d="M229.681,298.367l147.349,147.349c-2.802-10.673-4.001-21.588-2.918-31.605l-8.455-8.455
		c-1.563,1.563-3.609,2.344-5.656,2.344s-4.094-0.781-5.656-2.344L230.948,282.259l-8.992,8.992c-1.605,1.605-2.26,3.794-1.98,5.882
		C223.042,295.329,227.048,295.734,229.681,298.367z"/>
	<path style="fill:#FFF294;" d="M405.658,365.656l8.457,8.457c10.016-1.083,20.931,0.115,31.603,2.915L298.369,229.68
		c-2.633-2.633-3.039-6.639-1.234-9.705c-2.088-0.279-4.278,0.376-5.882,1.98l-8.992,8.992l123.397,123.397
		C408.783,357.469,408.783,362.531,405.658,365.656z"/>
	<path style="fill:#FFF294;" d="M346.692,335.378c4.328-2.36,9.139-3.505,13.939-3.436L218.338,189.648
		c-3.125-3.125-3.125-8.188,0-11.313h0l-12.664-12.664v0c-1.563,1.563-3.609,2.344-5.656,2.344s-4.094-0.781-5.656-2.344
		l-13.948-13.948c-4.8-0.069-9.611,1.076-13.939,3.436L346.692,335.378z"/>
	<path style="fill:#FFF294;" d="M331.944,360.629c-0.069-4.8,1.076-9.611,3.436-13.939L155.161,166.472
		c-2.36,4.328-3.505,9.139-3.436,13.939L331.944,360.629z"/>
	<path style="fill:#FFFFFF;" d="M414.115,374.113l-8.457-8.457c-1.563,1.563-3.609,2.344-5.656,2.344s-4.094-0.781-5.656-2.344
		l-33.714-33.714c-4.8-0.069-9.611,1.076-13.939,3.436l26.966,26.966c3.125,3.125,3.125,8.188,0,11.313
		c-1.562,1.563-3.609,2.344-5.656,2.344s-4.094-0.781-5.656-2.344l-26.966-26.966c-2.36,4.328-3.505,9.139-3.436,13.939
		l33.714,33.714c3.125,3.125,3.125,8.188,0,11.313l8.455,8.455c1.164-10.768,4.962-20.497,12.232-27.768
		C393.616,379.075,403.346,375.278,414.115,374.113z"/>
	<path style="fill:#FF9300;" d="M58.346,69.656C59.908,71.219,61.955,72,64.002,72s4.094-0.781,5.656-2.344
		c3.125-3.125,3.125-8.188,0-11.313l-56-56c-3.125-3.125-8.188-3.125-11.313,0s-3.125,8.188,0,11.313L58.346,69.656z"/>
	<path style="fill:#FFCF00;" d="M335.379,346.69l26.966,26.966c1.563,1.563,3.609,2.344,5.656,2.344s4.094-0.781,5.656-2.344
		c3.125-3.125,3.125-8.188,0-11.313l-26.966-26.966L166.474,155.159L93.642,82.328c-3.125-3.125-8.188-3.125-11.313,0
		s-3.125,8.188,0,11.313l72.831,72.831L335.379,346.69z"/>
	<path style="fill:#FF9300;" d="M200.017,168.016c2.047,0,4.094-0.781,5.656-2.344v0c3.125-3.125,3.125-8.187,0-11.312
		l-16.016-16.016c-3.125-3.125-8.188-3.125-11.313,0s-3.125,8.188,0,11.313l2.068,2.068l13.948,13.948
		C195.924,167.234,197.97,168.016,200.017,168.016z"/>
	<path style="fill:#FFCF00;" d="M218.338,189.648l142.294,142.294l33.714,33.714c1.563,1.563,3.609,2.344,5.656,2.344
		s4.094-0.781,5.656-2.344c3.125-3.125,3.125-8.188,0-11.313L282.261,230.947l-52.611-52.611c-3.125-3.125-8.187-3.125-11.312,0h0
		C215.213,181.461,215.213,186.523,218.338,189.648z"/>
	<path style="fill:#FF9300;" d="M274.353,205.664c1.563,1.563,3.609,2.344,5.656,2.344s4.094-0.781,5.656-2.344
		c3.125-3.125,3.125-8.188,0-11.313l-8.008-8.008c-3.125-3.125-8.188-3.125-11.313,0s-3.125,8.187,0,11.312L274.353,205.664z"/>
	<path style="fill:#FFCF00;" d="M298.369,229.68l147.349,147.349c18.603,4.882,36.467,14.639,47.542,25.714
		c0.746,0.746,1.467,1.508,2.168,2.282c-0.391-0.975-0.979-1.89-1.77-2.68L309.681,218.367c-3.125-3.125-8.188-3.125-11.313,0
		c-0.492,0.492-0.897,1.035-1.234,1.607C295.33,223.041,295.735,227.046,298.369,229.68z"/>
	<path style="fill:#FF9300;" d="M200.01,288.008c2.047,0,4.094-0.781,5.656-2.344c3.125-3.125,3.125-8.188,0-11.313l-8.008-8.008
		c-3.125-3.125-8.188-3.125-11.313,0s-3.125,8.188,0,11.313l8.008,8.008C195.916,287.226,197.963,288.008,200.01,288.008z"/>
	<path style="fill:#FFCF00;" d="M402.744,493.258c-11.071-11.074-20.829-28.938-25.713-47.541L229.681,298.367
		c-2.633-2.633-6.639-3.039-9.705-1.233c-0.572,0.337-1.116,0.742-1.607,1.233c-3.125,3.125-3.125,8.188,0,11.312l183.976,183.977
		c0.79,0.79,1.704,1.379,2.679,1.769c-0.157-0.143-0.308-0.297-0.464-0.441C403.945,494.425,403.338,493.852,402.744,493.258z"/>
	<path style="fill:#FF9300;" d="M85.658,114.344c-3.125-3.125-8.188-3.125-11.313,0s-3.125,8.188,0,11.313l16.008,16.008
		c1.563,1.563,3.609,2.344,5.656,2.344s4.094-0.781,5.656-2.344c3.125-3.125,3.125-8.188,0-11.313L85.658,114.344z"/>
	<path style="fill:#FFCF00;" d="M360.002,408c2.047,0,4.094-0.781,5.656-2.344c3.125-3.125,3.125-8.188,0-11.313l-33.714-33.714
		L151.726,180.411l-26.068-26.068c-3.125-3.125-8.188-3.125-11.313,0s-3.125,8.188,0,11.313l116.603,116.603l123.397,123.397
		C355.908,407.219,357.955,408,360.002,408z"/>
	<path style="fill:#FF9300;" d="M246.361,49.672c1.563,1.563,3.609,2.344,5.656,2.344s4.094-0.781,5.656-2.344
		c3.125-3.125,3.125-8.188,0-11.313L221.658,2.344c-3.125-3.125-8.188-3.125-11.313,0s-3.125,8.188,0,11.313L246.361,49.672z"/>
	<path style="fill:#FFCF00;" d="M319.161,122.472l84.109,84.109l11.075,11.075c1.563,1.563,3.609,2.344,5.656,2.344
		s4.094-0.781,5.656-2.344c3.125-3.125,3.125-8.188,0-11.313l-11.075-11.075l-84.109-84.109l-48.816-48.816
		c-3.125-3.125-8.188-3.125-11.313,0s-3.125,8.188,0,11.312L319.161,122.472z"/>
	<path style="fill:#FF9300;" d="M310.338,73.648c1.563,1.563,3.609,2.344,5.656,2.344s4.094-0.781,5.656-2.344
		c3.125-3.125,3.125-8.187,0-11.312l-39.992-39.992c-3.125-3.125-8.188-3.125-11.313,0s-3.125,8.188,0,11.313L310.338,73.648z"/>
	<path style="fill:#FFCF00;" d="M458.548,221.859c14.088-0.071,30.222,7.592,39.109,16.484L345.666,86.352
		c-3.125-3.125-8.188-3.125-11.313,0s-3.125,8.188,0,11.313l10.06,10.06l84.109,84.109L458.548,221.859z"/>
	<path style="fill:#FF9300;" d="M276.002,116c2.047,0,4.094-0.781,5.656-2.344c3.125-3.125,3.125-8.188,0-11.313l-36-36
		c-3.125-3.125-8.188-3.125-11.313,0s-3.125,8.187,0,11.312l36,36C271.908,115.219,273.955,116,276.002,116z"/>
	<path style="fill:#FFCF00;" d="M432.261,252.947l-32.427-32.427l-84.109-84.109l-10.083-10.083c-3.125-3.125-8.188-3.125-11.313,0
		s-3.125,8.188,0,11.313l148.016,148.016c0.469,0.469,0.985,0.859,1.528,1.187C437.49,278.707,432.703,265.4,432.261,252.947z"/>
	<path style="fill:#FF9300;" d="M44.017,260.016c2.047,0,4.094-0.781,5.656-2.344c3.125-3.125,3.125-8.188,0-11.313l-36.016-36.016
		c-3.125-3.125-8.188-3.125-11.313,0s-3.125,8.188,0,11.313l36.016,36.016C39.924,259.234,41.971,260.016,44.017,260.016z"/>
	<path style="fill:#FFCF00;" d="M206.345,425.656c1.563,1.563,3.609,2.344,5.656,2.344s4.094-0.781,5.656-2.344
		c3.125-3.125,3.125-8.187,0-11.312l-11.075-11.075l-84.109-84.109l-48.816-48.816c-3.125-3.125-8.188-3.125-11.313,0
		s-3.125,8.188,0,11.313l48.816,48.816l84.109,84.109L206.345,425.656z"/>
	<path style="fill:#FF9300;" d="M62.346,230.344c-3.125,3.125-3.125,8.188,0,11.313l39.992,39.992
		c1.563,1.563,3.609,2.344,5.656,2.344s4.094-0.781,5.656-2.344c3.125-3.125,3.125-8.188,0-11.313l-39.992-39.992
		C70.533,227.219,65.471,227.219,62.346,230.344z"/>
	<path style="fill:#FFCF00;" d="M250.549,429.86c14.088-0.071,30.221,7.592,39.109,16.484c0.006,0.006,0.012,0.013,0.018,0.019
		c-0.006-0.006-0.012-0.014-0.018-0.02L137.666,294.351c-3.125-3.125-8.188-3.125-11.313,0s-3.125,8.188,0,11.313l10.06,10.06
		l84.109,84.109L250.549,429.86z"/>
	<path style="fill:#FF9300;" d="M37.658,274.344c-3.125-3.125-8.188-3.125-11.313,0s-3.125,8.188,0,11.313l36,36
		c1.563,1.563,3.609,2.344,5.656,2.344s4.094-0.781,5.656-2.344c3.125-3.125,3.125-8.188,0-11.313L37.658,274.344z"/>
	<path style="fill:#FFCF00;" d="M224.261,460.947l-32.427-32.427l-84.109-84.109l-10.083-10.083c-3.125-3.125-8.188-3.125-11.313,0
		s-3.125,8.188,0,11.313l148.016,148.016c0.468,0.468,0.984,0.858,1.527,1.186C229.489,486.706,224.702,473.399,224.261,460.947z"/>
	<path style="fill:#D49E6C;" d="M495.427,405.024c-0.701-0.773-1.422-1.535-2.168-2.282c2.891,2.892,5.411,6.013,7.631,9.276
		c-9.672-6.986-20.901-11.012-32.392-11.85c-16.302-1.189-33.062,3.905-46.388,15.574c-24.266,21.256-28.834,57.068-12.114,83.663
		c-1.864-1.379-3.689-2.835-5.437-4.421c0.156,0.145,0.307,0.298,0.464,0.441c12.158,11.029,27.567,16.543,42.977,16.543
		c16.391,0,32.781-6.234,45.258-18.711C517.459,469.051,518.179,430.112,495.427,405.024z"/>
	<path style="fill:#B68052;" d="M445.718,377.028c-10.672-2.801-21.587-3.998-31.603-2.915
		c-10.769,1.164-20.499,4.962-27.769,12.231c-7.27,7.27-11.068,16.999-12.232,27.768c-1.083,10.017,0.116,20.932,2.918,31.605
		c4.884,18.603,14.642,36.467,25.713,47.541c0.594,0.594,1.201,1.168,1.816,1.727c1.748,1.587,3.573,3.042,5.437,4.421
		c-16.72-26.595-12.151-62.407,12.114-83.663c13.326-11.669,30.086-16.763,46.388-15.574c11.491,0.838,22.72,4.864,32.392,11.85
		c-2.221-3.264-4.74-6.384-7.631-9.276C482.185,391.668,464.321,381.91,445.718,377.028z"/>
	<path style="fill:#D49E6C;" d="M497.752,246.2c-9.088-4.808-19.723-6.673-29.434-4.281c-19.419,4.777-30.337,25.417-23.359,44.158
		c0.456,1.228,1.001,2.484,1.604,3.755c-0.067-0.066-0.151-0.108-0.218-0.175c6.836,6.836,16.242,10.25,25.656,10.25
		s18.82-3.414,25.656-10.25c13.194-13.187,13.651-35.982,1.379-49.84c3.07,3.498,5.269,7.583,6.744,11.912
		C503.286,249.647,500.643,247.729,497.752,246.2z"/>
	<path style="fill:#D49E6C;" d="M497.658,238.344c0.474,0.474,0.93,0.961,1.369,1.46
		C498.586,239.306,498.132,238.817,497.658,238.344z"/>
	<path style="fill:#B68052;" d="M458.548,221.859c-7.151,0.036-13.777,2.058-18.656,6.938c-5.821,5.821-7.965,14.74-7.631,24.15
		c0.442,12.453,5.228,25.76,11.612,33.896c0.801,1.021,1.626,1.967,2.472,2.813c0.067,0.067,0.15,0.109,0.218,0.175
		c-0.603-1.271-1.148-2.527-1.604-3.755c-6.979-18.741,3.94-39.381,23.359-44.158c9.711-2.392,20.346-0.526,29.434,4.281
		c2.891,1.529,5.534,3.447,8.029,5.529c-1.475-4.33-3.674-8.414-6.744-11.912c-0.003-0.004-0.007-0.008-0.01-0.012
		c-0.438-0.499-0.894-0.986-1.369-1.46C488.771,229.451,472.636,221.788,458.548,221.859z"/>
	<path style="fill:#D49E6C;" d="M297.781,459.729c-2.495-2.082-5.138-4-8.029-5.529c-9.088-4.808-19.723-6.673-29.434-4.281
		c-19.419,4.777-30.337,25.417-23.359,44.158c0.456,1.228,1.001,2.484,1.604,3.755c-0.067-0.066-0.151-0.108-0.218-0.175
		c6.836,6.836,16.242,10.25,25.656,10.25c9.414,0,18.82-3.414,25.656-10.25c13.194-13.187,13.651-35.982,1.379-49.84
		C294.107,451.315,296.306,455.399,297.781,459.729z"/>
	<path style="fill:#D49E6C;" d="M291.027,447.805c-0.435-0.491-0.883-0.973-1.351-1.441c-0.006-0.006-0.012-0.013-0.018-0.019
		C290.132,446.819,290.588,447.306,291.027,447.805z"/>
	<path style="fill:#B68052;" d="M236.959,494.077c-6.979-18.741,3.94-39.381,23.359-44.158c9.711-2.392,20.346-0.526,29.434,4.281
		c2.891,1.529,5.534,3.447,8.029,5.529c-1.475-4.33-3.674-8.414-6.744-11.912c-0.003-0.004-0.007-0.008-0.01-0.012
		c-0.438-0.499-0.894-0.986-1.369-1.46c-8.887-8.892-25.021-16.555-39.109-16.484c-7.151,0.036-13.777,2.058-18.657,6.938
		c-5.821,5.821-7.965,14.74-7.631,24.149c0.441,12.453,5.228,25.759,11.611,33.895c0.802,1.022,1.627,1.968,2.473,2.815
		c0.067,0.067,0.15,0.109,0.218,0.175C237.96,496.562,237.415,495.305,236.959,494.077z"/>
</g>
<g>
</g>
<g>
</g>
<g>
</g>
<g>
</g>
<g>
</g>
<g>
</g>
<g>
</g>
<g>
</g>
<g>
</g>
<g>
</g>
<g>
</g>
<g>
</g>
<g>
</g>
<g>
</g>
<g>
</g>
</svg>
